<?xml version="1.0" encoding="utf-8"?><svg xmlns="http://www.w3.org/2000/svg" width="600" height="230" viewBox="0 0 600 230"><defs><style>.cls-1{fill:#70c2be;}.cls-2{fill:#48b1ac;}.cls-3{fill:none;stroke:#e8bd63;stroke-linecap:round;stroke-miterlimit:10;stroke-width:3px;}.cls-4{fill:#949491;}.cls-5{fill:#f28f25;}.cls-6{fill:#fff;}</style></defs><title>API Pentesting LP graphic</title><g id="Layer_2" data-name="Layer 2"><rect class="cls-1" x="202.31" y="113.98" width="196.04" height="6.32"/><rect class="cls-1" x="200.72" y="112.4" width="196.04" height="6.32" transform="translate(117.99 -148.88) rotate(34.5)"/><rect class="cls-1" x="202.31" y="113.98" width="196.04" height="6.32" transform="translate(614.27 43.93) rotate(145.57)"/></g><g id="Layer_1" data-name="Layer 1"><circle class="cls-2" cx="300.33" cy="117.14" r="75.1"/><path class="cls-2" d="M193.88,97.87h3.91a2,2,0,0,1,2.05,2v1.7h8.51a6,6,0,0,1,6,6v19a6,6,0,0,1-6,6h-8.51v1.7a2,2,0,0,1-2.05,2.06h-3.91a2.05,2.05,0,0,1-2-2.06V99.92A2,2,0,0,1,193.88,97.87Z"/><path class="cls-2" d="M406.77,97.87h-3.91a2,2,0,0,0-2.05,2v1.7H392.3a6,6,0,0,0-6,6v19a6,6,0,0,0,6,6h8.51v1.7a2.05,2.05,0,0,0,2.05,2.06h3.91a2.05,2.05,0,0,0,2.05-2.06V99.92A2,2,0,0,0,406.77,97.87Z"/><path class="cls-2" d="M223.57,40.92l3.22,2.21a2.07,2.07,0,0,1,.53,2.86l-1,1.4,7,4.82a6,6,0,0,1,1.54,8.36L224.12,76.24a6,6,0,0,1-8.36,1.54l-7-4.82-1,1.4a2.06,2.06,0,0,1-2.86.53l-3.21-2.22a2,2,0,0,1-.53-2.85l19.53-28.37A2,2,0,0,1,223.57,40.92Z"/><path class="cls-2" d="M398.93,161.61l-3.21-2.21a2.05,2.05,0,0,0-2.86.52l-1,1.41-7-4.83a6,6,0,0,0-8.36,1.54l-10.78,15.67a6,6,0,0,0,1.54,8.36l7,4.82-1,1.41a2,2,0,0,0,.52,2.85l3.22,2.22a2.05,2.05,0,0,0,2.85-.53l19.53-28.38A2,2,0,0,0,398.93,161.61Z"/><path class="cls-2" d="M377.08,40.92l-3.22,2.21a2.05,2.05,0,0,0-.52,2.86l1,1.4-7,4.82a6,6,0,0,0-1.54,8.36l10.78,15.67a6,6,0,0,0,8.36,1.54l7-4.82,1,1.4a2.06,2.06,0,0,0,2.86.53l3.21-2.22a2,2,0,0,0,.53-2.85L379.93,41.45A2,2,0,0,0,377.08,40.92Z"/><path class="cls-2" d="M201.72,161.61l3.21-2.21a2.05,2.05,0,0,1,2.86.52l1,1.41,7-4.83a6,6,0,0,1,8.36,1.54l10.78,15.67a6,6,0,0,1-1.54,8.36l-7,4.82,1,1.41a2.05,2.05,0,0,1-.53,2.85l-3.22,2.22a2.05,2.05,0,0,1-2.85-.53l-19.53-28.38A2,2,0,0,1,201.72,161.61Z"/></g><g id="Layer_6" data-name="Layer 6"><path class="cls-3" d="M415.89,197A62,62,0,0,0,479,207"/><path class="cls-3" d="M415.55,35.47A62.06,62.06,0,0,1,479,28"/><path class="cls-3" d="M183.66,195a62,62,0,0,1-63.11,10"/><path class="cls-3" d="M184,33.47A62,62,0,0,0,120.55,26"/><path class="cls-3" d="M429.5,117.5a36.27,36.27,0,0,1,14-1c8.12,1.06,11.35,4.47,19,6a37.9,37.9,0,0,0,18-1"/><path class="cls-3" d="M171.5,117.86a35.88,35.88,0,0,1-14,1c-8.12-1-11.35-4.47-19-6a38,38,0,0,0-18,1"/></g><g id="Layer_3" data-name="Layer 3"><rect class="cls-4" x="413.96" y="107.26" width="19.76" height="3.64" rx="1.5" transform="translate(847.68 218.16) rotate(180)"/><rect class="cls-4" x="413.96" y="123.38" width="19.76" height="3.64" rx="1.5" transform="translate(847.68 250.41) rotate(180)"/><rect class="cls-4" x="166.73" y="107.26" width="19.76" height="3.64" rx="1.5"/><rect class="cls-4" x="166.73" y="123.38" width="19.76" height="3.64" rx="1.5"/><path class="cls-5" d="M171.2,97.87h-3.9a2,2,0,0,0-2.05,2v1.7h-8.52a6,6,0,0,0-6,6v19a6,6,0,0,0,6,6h8.52v1.7a2,2,0,0,0,2.05,2.06h3.9a2.06,2.06,0,0,0,2.06-2.06V99.92A2,2,0,0,0,171.2,97.87Z"/><path class="cls-5" d="M429.25,97.87h3.91a2,2,0,0,1,2,2v1.7h8.51a6,6,0,0,1,6,6v19a6,6,0,0,1-6,6h-8.51v1.7a2.05,2.05,0,0,1-2,2.06h-3.91a2,2,0,0,1-2.05-2.06V99.92A2,2,0,0,1,429.25,97.87Z"/><rect class="cls-4" x="396.81" y="178.81" width="19.76" height="3.64" rx="1.5" transform="translate(639.14 560.09) rotate(-145.44)"/><rect class="cls-4" x="387.67" y="192.09" width="19.76" height="3.64" rx="1.5" transform="translate(614.93 579.12) rotate(-145.44)"/><rect class="cls-4" x="193.22" y="38.56" width="19.76" height="3.64" rx="1.5" transform="translate(58.75 -108.09) rotate(34.56)"/><rect class="cls-4" x="184.07" y="51.84" width="19.76" height="3.64" rx="1.5" transform="translate(64.67 -100.56) rotate(34.56)"/><path class="cls-5" d="M205,28.07l-3.22-2.21a2,2,0,0,0-2.85.52l-1,1.41L191,23a6,6,0,0,0-8.35,1.54l-10.8,15.66a6,6,0,0,0,1.54,8.36l7,4.83-1,1.4a2,2,0,0,0,.52,2.85l3.22,2.22a2,2,0,0,0,2.85-.53l19.54-28.36A2.05,2.05,0,0,0,205,28.07Z"/><path class="cls-5" d="M417.51,174.46l3.22,2.22a2,2,0,0,1,.52,2.85l-1,1.41,7,4.82a6,6,0,0,1,1.54,8.36L418,209.79a6,6,0,0,1-8.35,1.54l-7-4.83-1,1.4a2,2,0,0,1-2.85.52l-3.22-2.21a2.05,2.05,0,0,1-.52-2.86L414.66,175A2,2,0,0,1,417.51,174.46Z"/><rect class="cls-4" x="184.07" y="178.81" width="19.76" height="3.64" rx="1.5" transform="translate(-68.24 141.91) rotate(-34.56)"/><rect class="cls-4" x="193.22" y="192.09" width="19.76" height="3.64" rx="1.5" transform="translate(-74.16 149.44) rotate(-34.56)"/><rect class="cls-4" x="387.67" y="38.56" width="19.76" height="3.64" rx="1.5" transform="translate(747.84 -151.9) rotate(145.44)"/><rect class="cls-4" x="396.81" y="51.84" width="19.76" height="3.64" rx="1.5" transform="translate(772.05 -132.87) rotate(145.44)"/><path class="cls-5" d="M395.64,28.07l3.22-2.21a2,2,0,0,1,2.85.52l1,1.41,7-4.83A6,6,0,0,1,418,24.5l10.8,15.66a6,6,0,0,1-1.54,8.36l-7,4.83,1,1.4a2,2,0,0,1-.52,2.85l-3.22,2.22a2,2,0,0,1-2.85-.53L395.12,30.93A2.05,2.05,0,0,1,395.64,28.07Z"/><path class="cls-5" d="M183.14,174.46l-3.22,2.22a2,2,0,0,0-.52,2.85l1,1.41-7,4.82a6,6,0,0,0-1.54,8.36l10.8,15.67a6,6,0,0,0,8.35,1.54l7-4.83,1,1.4a2,2,0,0,0,2.85.52l3.22-2.21a2.05,2.05,0,0,0,.52-2.86L186,175A2,2,0,0,0,183.14,174.46Z"/></g><g id="Layer_4" data-name="Layer 4"><path class="cls-6" d="M305.56,121l1.94-7.5-6.16-4.26a25.48,25.48,0,0,0-.91-7.1l.49-1.59,4.57-4.32-3.93-6.67-6,1.89L294,91.07a25,25,0,0,0-5.79-4.17l-.72-7.53L280,77.44l-4.27,6.23a25.15,25.15,0,0,0-7.11.94l-1.6-.47-4.32-4.56L256,83.51l1.89,6-.41,1.61a26,26,0,0,0-4.59,5.68l-7.94.62-1.94,7.5,6.65,4.39a25.71,25.71,0,0,0,1.15,7.16l-.36,1.62-4.51,4.34,3.95,6.67,7.58-1.46h0a26.5,26.5,0,0,0,5.71,4.53l.63,7.87,7.51,1.94,4.36-6.58a26,26,0,0,0,7.16-1.12l1.62.38,4.33,4.52,6.67-3.95-1.88-6,.41-1.61a25.18,25.18,0,0,0,4.11-5.81Zm-33.06.86a12.91,12.91,0,1,1,15.73-9.28A12.91,12.91,0,0,1,272.5,121.89Z"/><path class="cls-6" d="M344,109.71l.18-4.43-4.07-1.64a14.34,14.34,0,0,0-1.41-3.87h0l2.07-3.9-3-3.26-4.06,1.72h0a14.67,14.67,0,0,0-3.74-1.74l-1.29-4.22-4.43-.18-1.65,4.09a14.77,14.77,0,0,0-3.86,1.42h0l-3.9-2.06-3.25,3,1.73,4.06h0a15.82,15.82,0,0,0-1.76,3.73l-4.24,1.3-.19,4.43,4.11,1.65a14.81,14.81,0,0,0,1.44,3.86h0l-2.06,3.9,3.35,3.42,4.42-1.56h0a12.74,12.74,0,0,0,3.38,1.58l1.12,4.14,4.34.14,1.6-4.11a15,15,0,0,0,3.84-1.43h0l3.89,2,3.26-3L338,114.75h0a14.55,14.55,0,0,0,1.72-3.73Zm-18.61,4.39A7.38,7.38,0,1,1,333,107,7.39,7.39,0,0,1,325.34,114.1Z"/><path class="cls-6" d="M327.05,77.49l.43-4.4-4-1.88a14.57,14.57,0,0,0-1.2-3.93h0l2.28-3.77-2.81-3.43-4.15,1.5h0A14.76,14.76,0,0,0,314,59.63l-1.07-4.28-4.4-.43-1.88,4a14.59,14.59,0,0,0-3.93,1.21h0l-3.78-2.27-3.41,2.81L297,64.8h0a16,16,0,0,0-2,3.63l-4.3,1.06-.44,4.41,4,1.88a14.72,14.72,0,0,0,1.22,3.93h0l-2.27,3.78,3.15,3.6,4.5-1.31h0a12.94,12.94,0,0,0,3.28,1.77l.9,4.19,4.32.38,1.83-4a14.45,14.45,0,0,0,3.91-1.21h0L319,89.16l3.42-2.81-1.5-4.15h0a14.52,14.52,0,0,0,1.93-3.63Zm-18.83,3.35a7.38,7.38,0,1,1,8.07-6.62A7.37,7.37,0,0,1,308.22,80.84Z"/><path class="cls-6" d="M357.18,98.63l.17-1.69-1.53-.72a5.51,5.51,0,0,0-.46-1.51h0l.87-1.45-1.08-1.32-1.59.58h0a5.88,5.88,0,0,0-1.4-.75l-.4-1.64-1.7-.17-.72,1.54a5.62,5.62,0,0,0-1.51.46h0l-1.45-.88-1.31,1.08.57,1.59h0a6.16,6.16,0,0,0-.75,1.39l-1.66.41-.16,1.69,1.54.72a5.53,5.53,0,0,0,.47,1.51h0l-.87,1.45,1.21,1.38,1.72-.5h0a4.42,4.42,0,0,0,1.26.68l.34,1.61,1.66.15.7-1.54a6,6,0,0,0,1.51-.47h0l1.45.87,1.32-1.08-.58-1.59h0a5.79,5.79,0,0,0,.74-1.39ZM350,99.92a2.83,2.83,0,1,1,3.1-2.55A2.84,2.84,0,0,1,350,99.92Z"/><path class="cls-6" d="M285.92,148l10.48,28H290l-2.12-6.24H277.4L275.2,176H269l10.6-28Zm.35,17.2-3.53-10.29h-.08L279,165.17Z"/><path class="cls-6" d="M311.47,148a11.63,11.63,0,0,1,4.47.77,8.43,8.43,0,0,1,3,2,7.87,7.87,0,0,1,1.69,2.87,10.64,10.64,0,0,1,.52,3.33,10.76,10.76,0,0,1-.52,3.32,7.87,7.87,0,0,1-1.69,2.89,8.56,8.56,0,0,1-3,2,11.63,11.63,0,0,1-4.47.76H305V176h-6.16V148Zm-1.69,13.19a13.41,13.41,0,0,0,2-.15,4.86,4.86,0,0,0,1.73-.61,3.3,3.3,0,0,0,1.2-1.28,5.41,5.41,0,0,0,0-4.32,3.27,3.27,0,0,0-1.2-1.27,4.68,4.68,0,0,0-1.73-.61,13.39,13.39,0,0,0-2-.16H305v8.4Z"/><path class="cls-6" d="M331.17,148v28H325V148Z"/></g></svg>