<?xml version="1.0" standalone="no"?>
<!DOCTYPE svg PUBLIC "-//W3C//DTD SVG 20010904//EN"
 "http://www.w3.org/TR/2001/REC-SVG-20010904/DTD/svg10.dtd">
<svg version="1.0" xmlns="http://www.w3.org/2000/svg"
 width="184.000000pt" height="387.000000pt" viewBox="0 0 184.000000 387.000000"
 preserveAspectRatio="xMidYMid meet">
<metadata>
Created by potrace 1.15, written by Peter Selinger 2001-2017
</metadata>
<g transform="translate(0.000000,387.000000) scale(0.100000,-0.100000)"
fill="#000000" stroke="none">
<path d="M863 3721 c-161 -59 -348 -248 -402 -408 -41 -121 -26 -210 83 -504
87 -234 87 -234 42 -306 -49 -79 -49 -128 -1 -203 39 -62 45 -110 17 -152 -9
-14 -83 -91 -163 -170 -118 -116 -152 -156 -182 -214 -50 -97 -71 -189 -63
-282 8 -97 21 -121 29 -53 14 121 127 276 249 342 56 30 72 34 138 34 85 0
129 -17 188 -72 l36 -34 -106 -107 c-265 -267 -490 -580 -529 -735 -30 -121
16 -212 107 -212 39 0 50 5 75 33 30 33 41 92 17 92 -33 0 -57 -14 -60 -34 -8
-54 -78 -14 -78 44 0 35 43 122 97 199 l47 65 67 -72 c37 -40 69 -72 72 -72 2
0 27 26 55 59 l51 59 -64 73 -65 74 73 73 72 73 63 -68 62 -68 58 63 58 62
-58 60 c-32 32 -58 63 -58 67 0 5 31 39 69 77 l69 69 55 -59 54 -58 46 69 45
70 -44 52 c-24 28 -44 56 -44 62 0 15 60 58 92 66 21 5 33 1 54 -20 23 -24 26
-32 22 -79 -9 -107 -105 -250 -343 -511 -197 -215 -284 -322 -334 -409 -92
-161 -116 -285 -66 -345 36 -41 84 -56 127 -38 41 17 56 35 64 75 6 31 6 32
-30 32 -29 0 -36 -4 -36 -19 0 -28 -37 -37 -62 -14 -44 39 5 174 105 288 l36
40 68 -68 69 -67 46 53 46 54 -63 74 -64 73 22 24 c12 13 48 47 80 74 l57 50
66 -58 66 -58 39 42 c22 23 39 45 39 49 0 5 -22 35 -49 68 l-49 59 77 83 76
82 53 -52 c58 -57 51 -59 98 21 l26 42 -28 36 c-62 77 -61 74 -35 95 14 11 39
19 62 19 48 0 69 -27 69 -88 0 -89 -93 -228 -333 -496 -212 -237 -260 -295
-315 -388 -117 -200 -136 -319 -61 -382 60 -51 157 -19 175 56 6 27 4 28 -30
28 -25 0 -36 -4 -36 -15 0 -25 -34 -36 -58 -19 -34 24 -29 82 13 163 37 70
119 181 134 181 16 0 110 -132 147 -206 26 -51 33 -78 29 -96 -14 -55 -66 -72
-80 -27 -5 14 -16 19 -41 19 -32 0 -34 -2 -28 -27 3 -16 19 -40 35 -55 59 -56
155 -23 180 61 21 72 -29 218 -123 355 l-40 59 88 88 c49 49 92 89 96 89 14 0
98 -114 128 -174 18 -34 30 -75 30 -97 0 -63 -52 -92 -75 -41 -12 27 -75 33
-75 7 0 -33 32 -77 67 -91 47 -20 86 -10 123 32 24 27 30 44 30 79 0 66 -44
191 -98 282 l-49 80 92 99 92 98 47 -64 c88 -119 114 -197 82 -245 -21 -32
-59 -31 -64 1 -3 20 -27 34 -59 34 -25 0 -14 -59 16 -92 25 -28 36 -33 75 -33
38 0 51 5 77 32 65 65 45 194 -58 364 l-54 89 31 45 c80 117 126 260 117 370
-12 161 -67 255 -258 445 -81 80 -154 160 -164 179 -21 41 -15 67 30 133 49
71 49 126 -1 199 -36 53 -36 55 -25 109 6 30 34 116 61 190 126 337 134 416
59 575 -55 117 -202 260 -333 323 -84 41 -112 45 -173 23z m-58 -1275 c34 -22
33 -60 -4 -97 -20 -20 -39 -29 -61 -29 -70 0 -119 98 -67 135 27 20 95 15 132
-9z m383 8 c55 -38 8 -134 -65 -134 -46 0 -96 48 -91 87 6 51 107 82 156 47z"/>
<path d="M537 1736 c-161 -58 -288 -272 -257 -434 5 -29 15 -62 21 -73 13 -24
12 -25 78 56 35 42 41 57 41 95 0 66 20 90 76 90 42 0 48 4 108 67 59 63 63
69 54 96 -6 16 -8 48 -5 73 l5 44 -42 0 c-22 -1 -58 -7 -79 -14z"/>
</g>
</svg>
