<svg height="512" viewBox="0 0 58 58" width="512" xmlns="http://www.w3.org/2000/svg"><g id="Page-1" fill="none" fill-rule="evenodd"><g id="014---Cross-Pipe" fill-rule="nonzero"><path id="Shape" d="m54 20v18h-14c-1.1032019.0032948-1.9967052.8967981-2 2v14h-18v-14c-.0032948-1.1032019-.8967981-1.9967052-2-2h-14v-18h14c1.1032019-.0032948 1.9967052-.8967981 2-2v-14h18v14c.0032948 1.1032019.8967981 1.9967052 2 2z" fill="#3b97d3"/><g fill="#95a5a5"><path id="Shape" d="m40 2c.0028231.53059053-.2101411 1.0395388-.59 1.41-.3704612.3798589-.8794095.59282307-1.41.59h-18c-1.1032019-.0032948-1.9967052-.89679813-2-2-.0028231-.53059053.2101411-1.0395388.59-1.41.3704612-.3798589.8794095-.59282307 1.41-.59h18c1.1032019.0032948 1.9967052.89679813 2 2z"/><path id="Shape" d="m40 56c-.0081672 1.1011688-.8988312 1.9918328-2 2h-18c-1.1032019-.0032948-1.9967052-.8967981-2-2 .0081672-1.1011688.8988312-1.9918328 2-2h18c1.1032019.0032948 1.9967052.8967981 2 2z"/><path id="Shape" d="m58 20v18c-.0032948 1.1032019-.8967981 1.9967052-2 2-1.1011688-.0081672-1.9918328-.8988312-2-2v-18c.0032948-1.1032019.8967981-1.9967052 2-2 1.1011688.0081672 1.9918328.8988312 2 2z"/><path id="Shape" d="m4 20v18c-.0032948 1.1032019-.89679813 1.9967052-2 2-.53059053.0028231-1.0395388-.2101411-1.41-.59-.3798589-.3704612-.59282307-.8794095-.59-1.41v-18c.0032948-1.1032019.89679813-1.9967052 2-2 .53059053-.0028231 1.0395388.2101411 1.41.59.3798589.3704612.59282307.8794095.59 1.41z"/></g><path id="Shape" d="m34 21h-10c-.5522847 0-1-.4477153-1-1s.4477153-1 1-1h10c.5522847 0 1 .4477153 1 1s-.4477153 1-1 1z" fill="#2980ba"/><path id="Shape" d="m34 39h-10c-.5522847 0-1-.4477153-1-1s.4477153-1 1-1h10c.5522847 0 1 .4477153 1 1s-.4477153 1-1 1z" fill="#2980ba"/><path id="Shape" d="m20 35c-.5522847 0-1-.4477153-1-1v-10c0-.5522847.4477153-1 1-1s1 .4477153 1 1v10c0 .5522847-.4477153 1-1 1z" fill="#2980ba"/><path id="Shape" d="m38 35c-.5522847 0-1-.4477153-1-1v-10c0-.5522847.4477153-1 1-1s1 .4477153 1 1v10c0 .5522847-.4477153 1-1 1z" fill="#2980ba"/></g></g></svg>