<svg version="1.0" xmlns="http://www.w3.org/2000/svg" width="245.333" height="516" viewBox="0 0 184 387"><path d="M86.3 14.9c-16.1 5.9-34.8 24.8-40.2 40.8-4.1 12.1-2.6 21 8.3 50.4 8.7 23.4 8.7 23.4 4.2 30.6-4.9 7.9-4.9 12.8-.1 20.3 3.9 6.2 4.5 11 1.7 15.2-.9 1.4-8.3 9.1-16.3 17-11.8 11.6-15.2 15.6-18.2 21.4-5 9.7-7.1 18.9-6.3 28.2.8 9.7 2.1 12.1 2.9 5.3 1.4-12.1 12.7-27.6 24.9-34.2 5.6-3 7.2-3.4 13.8-3.4 8.5 0 12.9 1.7 18.8 7.2l3.6 3.4-10.6 10.7c-26.5 26.7-49 58-52.9 73.5-3 12.1 1.6 21.2 10.7 21.2 3.9 0 5-.5 7.5-3.3 3-3.3 4.1-9.2 1.7-9.2-3.3 0-5.7 1.4-6 3.4-.8 5.4-7.8 1.4-7.8-4.4 0-3.5 4.3-12.2 9.7-19.9l4.7-6.5 6.7 7.2c3.7 4 6.9 7.2 7.2 7.2.2 0 2.7-2.6 5.5-5.9l5.1-5.9-6.4-7.3-6.5-7.4 7.3-7.3 7.2-7.3 6.3 6.8 6.2 6.8 5.8-6.3 5.8-6.2-5.8-6c-3.2-3.2-5.8-6.3-5.8-6.7 0-.5 3.1-3.9 6.9-7.7l6.9-6.9 5.5 5.9 5.4 5.8 4.6-6.9 4.5-7-4.4-5.2c-2.4-2.8-4.4-5.6-4.4-6.2 0-1.5 6-5.8 9.2-6.6 2.1-.5 3.3-.1 5.4 2 2.3 2.4 2.6 3.2 2.2 7.9-.9 10.7-10.5 25-34.3 51.1-19.7 21.5-28.4 32.2-33.4 40.9-9.2 16.1-11.6 28.5-6.6 34.5 3.6 4.1 8.4 5.6 12.7 3.8 4.1-1.7 5.6-3.5 6.4-7.5.6-3.1.6-3.2-3-3.2-2.9 0-3.6.4-3.6 1.9 0 2.8-3.7 3.7-6.2 1.4-4.4-3.9.5-17.4 10.5-28.8l3.6-4 6.8 6.8 6.9 6.7 4.6-5.3 4.6-5.4-6.3-7.4-6.4-7.3 2.2-2.4c1.2-1.3 4.8-4.7 8-7.4l5.7-5 6.6 5.8 6.6 5.8 3.9-4.2c2.2-2.3 3.9-4.5 3.9-4.9 0-.5-2.2-3.5-4.9-6.8l-4.9-5.9 7.7-8.3 7.6-8.2 5.3 5.2c5.8 5.7 5.1 5.9 9.8-2.1l2.6-4.2-2.8-3.6c-6.2-7.7-6.1-7.4-3.5-9.5 1.4-1.1 3.9-1.9 6.2-1.9 4.8 0 6.9 2.7 6.9 8.8 0 8.9-9.3 22.8-33.3 49.6-21.2 23.7-26 29.5-31.5 38.8-11.7 20-13.6 31.9-6.1 38.2 6 5.1 15.7 1.9 17.5-5.6.6-2.7.4-2.8-3-2.8-2.5 0-3.6.4-3.6 1.5 0 2.5-3.4 3.6-5.8 1.9-3.4-2.4-2.9-8.2 1.3-16.3 3.7-7 11.9-18.1 13.4-18.1 1.6 0 11 13.2 14.7 20.6 2.6 5.1 3.3 7.8 2.9 9.6-1.4 5.5-6.6 7.2-8 2.7-.5-1.4-1.6-1.9-4.1-1.9-3.2 0-3.4.2-2.8 2.7.3 1.6 1.9 4 3.5 5.5 5.9 5.6 15.5 2.3 18-6.1 2.1-7.2-2.9-21.8-12.3-35.5l-4-5.9 8.8-8.8c4.9-4.9 9.2-8.9 9.6-8.9 1.4 0 9.8 11.4 12.8 17.4 1.8 3.4 3 7.5 3 9.7 0 6.3-5.2 9.2-7.5 4.1-1.2-2.7-7.5-3.3-7.5-.7 0 3.3 3.2 7.7 6.7 9.1 4.7 2 8.6 1 12.3-3.2 2.4-2.7 3-4.4 3-7.9 0-6.6-4.4-19.1-9.8-28.2l-4.9-8 9.2-9.9 9.2-9.8 4.7 6.4c8.8 11.9 11.4 19.7 8.2 24.5-2.1 3.2-5.9 3.1-6.4-.1-.3-2-2.7-3.4-5.9-3.4-2.5 0-1.4 5.9 1.6 9.2 2.5 2.8 3.6 3.3 7.5 3.3 3.8 0 5.1-.5 7.7-3.2 6.5-6.5 4.5-19.4-5.8-36.4l-5.4-8.9 3.1-4.5c8-11.7 12.6-26 11.7-37-1.2-16.1-6.7-25.5-25.8-44.5-8.1-8-15.4-16-16.4-17.9-2.1-4.1-1.5-6.7 3-13.3 4.9-7.1 4.9-12.6-.1-19.9-3.6-5.3-3.6-5.5-2.5-10.9.6-3 3.4-11.6 6.1-19 12.6-33.7 13.4-41.6 5.9-57.5-5.5-11.7-20.2-26-33.3-32.3-8.4-4.1-11.2-4.5-17.3-2.3zm-5.8 127.5c3.4 2.2 3.3 6-.4 9.7-2 2-3.9 2.9-6.1 2.9-7 0-11.9-9.8-6.7-13.5 2.7-2 9.5-1.5 13.2.9zm38.3-.8c5.5 3.8.8 13.4-6.5 13.4-4.6 0-9.6-4.8-9.1-8.7.6-5.1 10.7-8.2 15.6-4.7z"/><path d="M53.7 213.4c-16.1 5.8-28.8 27.2-25.7 43.4.5 2.9 1.5 6.2 2.1 7.3 1.3 2.4 1.2 2.5 7.8-5.6 3.5-4.2 4.1-5.7 4.1-9.5 0-6.6 2-9 7.6-9 4.2 0 4.8-.4 10.8-6.7 5.9-6.3 6.3-6.9 5.4-9.6-.6-1.6-.8-4.8-.5-7.3l.5-4.4h-4.2c-2.2.1-5.8.7-7.9 1.4z"/></svg>