<svg height="512" viewBox="0 0 58 58" width="512" xmlns="http://www.w3.org/2000/svg"><g fill="none"><path d="M54 20v18H40a2.006 2.006 0 00-2 2v14H20V40a2.006 2.006 0 00-2-2H4V20h14a2.006 2.006 0 002-2V4h18v14a2.006 2.006 0 002 2z" fill="#3b97d3"/><path d="M40 2c.003.53-.21 1.04-.59 1.41-.37.38-.88.593-1.41.59H20a2.006 2.006 0 01-2-2c-.003-.53.21-1.04.59-1.41.37-.38.88-.593 1.41-.59h18a2.006 2.006 0 012 2zm0 54a2.015 2.015 0 01-2 2H20a2.006 2.006 0 01-2-2 2.015 2.015 0 012-2h18a2.006 2.006 0 012 2zm18-36v18a2.006 2.006 0 01-2 2 2.015 2.015 0 01-2-2V20a2.006 2.006 0 012-2 2.015 2.015 0 012 2zM4 20v18a2.006 2.006 0 01-2 2c-.53.003-1.04-.21-1.41-.59-.38-.37-.593-.88-.59-1.41V20a2.006 2.006 0 012-2c.53-.003 1.04.21 1.41.59.38.37.593.88.59 1.41z" fill="#95a5a5"/><path d="M34 21H24a1 1 0 010-2h10a1 1 0 010 2zm0 18H24a1 1 0 010-2h10a1 1 0 010 2zm-14-4a1 1 0 01-1-1V24a1 1 0 012 0v10a1 1 0 01-1 1zm18 0a1 1 0 01-1-1V24a1 1 0 012 0v10a1 1 0 01-1 1z" fill="#2980ba"/></g></svg>