<svg xmlns="http://www.w3.org/2000/svg" width="600" height="230" viewBox="0 0 600 230"><defs><style>.cls-1{fill:#70c2be}.cls-2{fill:#48b1ac}.cls-4{fill:#949491}.cls-5{fill:#f28f25}.cls-6{fill:#fff}</style></defs><g id="Layer_2" data-name="Layer 2"><path class="cls-1" d="M202.31 113.98h196.04v6.32H202.31z"/><path class="cls-1" transform="rotate(34.5 298.731 115.555)" d="M200.72 112.4h196.04v6.32H200.72z"/><path class="cls-1" transform="rotate(145.57 300.33 117.127)" d="M202.31 113.98h196.04v6.32H202.31z"/></g><g id="Layer_1" data-name="Layer 1"><circle class="cls-2" cx="300.33" cy="117.14" r="75.1"/><path class="cls-2" d="M193.88 97.87h3.91a2 2 0 012.05 2v1.7h8.51a6 6 0 016 6v19a6 6 0 01-6 6h-8.51v1.7a2 2 0 01-2.05 2.06h-3.91a2.05 2.05 0 01-2-2.06V99.92a2 2 0 012-2.05zm212.89 0h-3.91a2 2 0 00-2.05 2v1.7h-8.51a6 6 0 00-6 6v19a6 6 0 006 6h8.51v1.7a2.05 2.05 0 002.05 2.06h3.91a2.05 2.05 0 002.05-2.06V99.92a2 2 0 00-2.05-2.05zm-183.2-56.95l3.22 2.21a2.07 2.07 0 01.53 2.86l-1 1.4 7 4.82a6 6 0 011.54 8.36l-10.74 15.67a6 6 0 01-8.36 1.54l-7-4.82-1 1.4a2.06 2.06 0 01-2.86.53l-3.21-2.22a2 2 0 01-.53-2.85l19.53-28.37a2 2 0 012.88-.53zm175.36 120.69l-3.21-2.21a2.05 2.05 0 00-2.86.52l-1 1.41-7-4.83a6 6 0 00-8.36 1.54l-10.78 15.67a6 6 0 001.54 8.36l7 4.82-1 1.41a2 2 0 00.52 2.85l3.22 2.22a2.05 2.05 0 002.85-.53l19.53-28.38a2 2 0 00-.45-2.85zM377.08 40.92l-3.22 2.21a2.05 2.05 0 00-.52 2.86l1 1.4-7 4.82a6 6 0 00-1.54 8.36l10.78 15.67a6 6 0 008.36 1.54l7-4.82 1 1.4a2.06 2.06 0 002.86.53l3.21-2.22a2 2 0 00.53-2.85l-19.61-28.37a2 2 0 00-2.85-.53zM201.72 161.61l3.21-2.21a2.05 2.05 0 012.86.52l1 1.41 7-4.83a6 6 0 018.36 1.54l10.78 15.67a6 6 0 01-1.54 8.36l-7 4.82 1 1.41a2.05 2.05 0 01-.53 2.85l-3.22 2.22a2.05 2.05 0 01-2.85-.53l-19.53-28.38a2 2 0 01.46-2.85z"/></g><path d="M415.89 197A62 62 0 00479 207M415.55 35.47A62.06 62.06 0 01479 28M183.66 195a62 62 0 01-63.11 10M184 33.47A62 62 0 00120.55 26m308.95 91.5a36.27 36.27 0 0114-1c8.12 1.06 11.35 4.47 19 6a37.9 37.9 0 0018-1m-309-3.64a35.88 35.88 0 01-14 1c-8.12-1-11.35-4.47-19-6a38 38 0 00-18 1" fill="none" stroke="#e8bd63" stroke-linecap="round" stroke-miterlimit="10" stroke-width="3" id="Layer_6" data-name="Layer 6"/><g id="Layer_3" data-name="Layer 3"><rect class="cls-4" x="413.96" y="107.26" width="19.76" height="3.64" rx="1.5" transform="rotate(180 423.84 109.08)"/><rect class="cls-4" x="413.96" y="123.38" width="19.76" height="3.64" rx="1.5" transform="rotate(180 423.84 125.205)"/><rect class="cls-4" x="166.73" y="107.26" width="19.76" height="3.64" rx="1.5"/><rect class="cls-4" x="166.73" y="123.38" width="19.76" height="3.64" rx="1.5"/><path class="cls-5" d="M171.2 97.87h-3.9a2 2 0 00-2.05 2v1.7h-8.52a6 6 0 00-6 6v19a6 6 0 006 6h8.52v1.7a2 2 0 002.05 2.06h3.9a2.06 2.06 0 002.06-2.06V99.92a2 2 0 00-2.06-2.05zm258.05 0h3.91a2 2 0 012 2v1.7h8.51a6 6 0 016 6v19a6 6 0 01-6 6h-8.51v1.7a2.05 2.05 0 01-2 2.06h-3.91a2 2 0 01-2.05-2.06V99.92a2 2 0 012.05-2.05z"/><rect class="cls-4" x="396.81" y="178.81" width="19.76" height="3.64" rx="1.5" transform="rotate(-145.44 406.687 180.632)"/><rect class="cls-4" x="387.67" y="192.09" width="19.76" height="3.64" rx="1.5" transform="rotate(-145.44 397.542 193.913)"/><rect class="cls-4" x="193.22" y="38.56" width="19.76" height="3.64" rx="1.5" transform="rotate(34.56 203.107 40.383)"/><rect class="cls-4" x="184.07" y="51.84" width="19.76" height="3.64" rx="1.5" transform="rotate(34.56 193.964 53.664)"/><path class="cls-5" d="M205 28.07l-3.22-2.21a2 2 0 00-2.85.52l-1 1.41L191 23a6 6 0 00-8.35 1.54l-10.8 15.66a6 6 0 001.54 8.36l7 4.83-1 1.4a2 2 0 00.52 2.85l3.22 2.22a2 2 0 002.85-.53l19.54-28.36a2.05 2.05 0 00-.52-2.9zm212.51 146.39l3.22 2.22a2 2 0 01.52 2.85l-1 1.41 7 4.82a6 6 0 011.54 8.36L418 209.79a6 6 0 01-8.35 1.54l-7-4.83-1 1.4a2 2 0 01-2.85.52l-3.22-2.21a2.05 2.05 0 01-.52-2.86l19.6-28.35a2 2 0 012.85-.54z"/><rect class="cls-4" x="184.07" y="178.81" width="19.76" height="3.64" rx="1.5" transform="rotate(-34.56 193.97 180.637)"/><rect class="cls-4" x="193.22" y="192.09" width="19.76" height="3.64" rx="1.5" transform="rotate(-34.56 203.114 193.917)"/><rect class="cls-4" x="387.67" y="38.56" width="19.76" height="3.64" rx="1.5" transform="rotate(145.44 397.547 40.37)"/><rect class="cls-4" x="396.81" y="51.84" width="19.76" height="3.64" rx="1.5" transform="rotate(145.44 406.692 53.65)"/><path class="cls-5" d="M395.64 28.07l3.22-2.21a2 2 0 012.85.52l1 1.41 7-4.83A6 6 0 01418 24.5l10.8 15.66a6 6 0 01-1.54 8.36l-7 4.83 1 1.4a2 2 0 01-.52 2.85l-3.22 2.22a2 2 0 01-2.85-.53l-19.55-28.36a2.05 2.05 0 01.52-2.86zm-212.5 146.39l-3.22 2.22a2 2 0 00-.52 2.85l1 1.41-7 4.82a6 6 0 00-1.54 8.36l10.8 15.67a6 6 0 008.35 1.54l7-4.83 1 1.4a2 2 0 002.85.52l3.22-2.21a2.05 2.05 0 00.52-2.86L186 175a2 2 0 00-2.86-.54z"/></g><g id="Layer_4" data-name="Layer 4"><path class="cls-6" d="M305.56 121l1.94-7.5-6.16-4.26a25.48 25.48 0 00-.91-7.1l.49-1.59 4.57-4.32-3.93-6.67-6 1.89-1.56-.38a25 25 0 00-5.79-4.17l-.72-7.53-7.49-1.93-4.27 6.23a25.15 25.15 0 00-7.11.94l-1.6-.47-4.32-4.56-6.7 3.93 1.89 6-.41 1.61a26 26 0 00-4.59 5.68l-7.94.62-1.94 7.5 6.65 4.39a25.71 25.71 0 001.15 7.16l-.36 1.62-4.51 4.34 3.95 6.67 7.58-1.46a26.5 26.5 0 005.71 4.53l.63 7.87 7.51 1.94 4.36-6.58a26 26 0 007.16-1.12l1.62.38 4.33 4.52 6.67-3.95-1.88-6 .41-1.61a25.18 25.18 0 004.11-5.81zm-33.06.86a12.91 12.91 0 1115.73-9.28 12.91 12.91 0 01-15.73 9.31zm71.5-12.15l.18-4.43-4.07-1.64a14.34 14.34 0 00-1.41-3.87l2.07-3.9-3-3.26-4.06 1.72a14.67 14.67 0 00-3.74-1.74l-1.29-4.22-4.43-.18-1.65 4.09a14.77 14.77 0 00-3.86 1.42l-3.9-2.06-3.25 3 1.73 4.06a15.82 15.82 0 00-1.76 3.73l-4.24 1.3-.19 4.43 4.11 1.65a14.81 14.81 0 001.44 3.86l-2.06 3.9 3.35 3.42 4.42-1.56a12.74 12.74 0 003.38 1.58l1.12 4.14 4.34.14 1.6-4.11a15 15 0 003.84-1.43l3.89 2 3.26-3-1.82-4a14.55 14.55 0 001.72-3.73zm-18.61 4.39A7.38 7.38 0 11333 107a7.39 7.39 0 01-7.66 7.1z"/><path class="cls-6" d="M327.05 77.49l.43-4.4-4-1.88a14.57 14.57 0 00-1.2-3.93l2.28-3.77-2.81-3.43-4.15 1.5a14.76 14.76 0 00-3.6-1.95l-1.07-4.28-4.4-.43-1.88 4a14.59 14.59 0 00-3.93 1.21l-3.78-2.27-3.41 2.81L297 64.8a16 16 0 00-2 3.63l-4.3 1.06-.44 4.41 4 1.88a14.72 14.72 0 001.22 3.93l-2.27 3.78 3.15 3.6 4.5-1.31a12.94 12.94 0 003.28 1.77l.9 4.19 4.32.38 1.83-4a14.45 14.45 0 003.91-1.21l3.9 2.25 3.42-2.81-1.5-4.15a14.52 14.52 0 001.93-3.63zm-18.83 3.35a7.38 7.38 0 118.07-6.62 7.37 7.37 0 01-8.07 6.62zm48.96 17.79l.17-1.69-1.53-.72a5.51 5.51 0 00-.46-1.51l.87-1.45-1.08-1.32-1.59.58a5.88 5.88 0 00-1.4-.75l-.4-1.64-1.7-.17-.72 1.54a5.62 5.62 0 00-1.51.46l-1.45-.88-1.31 1.08.57 1.59a6.16 6.16 0 00-.75 1.39l-1.66.41-.16 1.69 1.54.72a5.53 5.53 0 00.47 1.51l-.87 1.45 1.21 1.38 1.72-.5a4.42 4.42 0 001.26.68l.34 1.61 1.66.15.7-1.54a6 6 0 001.51-.47l1.45.87 1.32-1.08-.58-1.59a5.79 5.79 0 00.74-1.39zM350 99.92a2.83 2.83 0 113.1-2.55 2.84 2.84 0 01-3.1 2.55zM285.92 148l10.48 28H290l-2.12-6.24H277.4l-2.2 6.24H269l10.6-28zm.35 17.2l-3.53-10.29h-.08L279 165.17zm25.2-17.2a11.63 11.63 0 014.47.77 8.43 8.43 0 013 2 7.87 7.87 0 011.69 2.87 10.64 10.64 0 01.52 3.33 10.76 10.76 0 01-.52 3.32 7.87 7.87 0 01-1.69 2.89 8.56 8.56 0 01-3 2 11.63 11.63 0 01-4.47.76H305V176h-6.16v-28zm-1.69 13.19a13.41 13.41 0 002-.15 4.86 4.86 0 001.73-.61 3.3 3.3 0 001.2-1.28 5.41 5.41 0 000-4.32 3.27 3.27 0 00-1.2-1.27 4.68 4.68 0 00-1.73-.61 13.39 13.39 0 00-2-.16H305v8.4zM331.17 148v28H325v-28z"/></g></svg>